<svg aria-hidden="true" style="position: absolute; width: 0; height: 0; overflow: hidden;" version="1.1" xmlns="http://www.w3.org/2000/svg" xmlns:xlink="http://www.w3.org/1999/xlink">
<defs>
<symbol id="icon-user" viewBox="0 0 24 24">
<path d="M21.028 15.469c-1.185-1.249-2.608-2.158-4.107-2.652 1.494-1.347 2.434-3.296 2.434-5.461 0-4.055-3.299-7.355-7.355-7.355s-7.355 3.299-7.355 7.355c0 2.165 0.94 4.114 2.434 5.461-1.499 0.495-2.923 1.403-4.107 2.652-1.917 2.021-2.972 4.638-2.972 7.37v1.161h24v-1.161c0-2.732-1.056-5.349-2.972-7.37zM6.968 7.355c0-2.775 2.257-5.032 5.032-5.032s5.032 2.257 5.032 5.032c0 2.775-2.257 5.032-5.032 5.032s-5.032-2.257-5.032-5.032zM2.404 21.677c0.576-4.058 4.097-6.968 7.273-6.968h4.645c3.176 0 6.697 2.91 7.273 6.968h-19.191z"></path>
</symbol>
<symbol id="icon-arrow" viewBox="0 0 24 24">
<path d="M11.293 5.707l5.293 5.293h-11.586c-0.552 0-1 0.448-1 1s0.448 1 1 1h11.586l-5.293 5.293c-0.391 0.391-0.391 1.024 0 1.414s1.024 0.391 1.414 0l7-7c0.092-0.092 0.166-0.202 0.217-0.324 0.101-0.245 0.101-0.521 0-0.766-0.049-0.118-0.121-0.228-0.217-0.324l-7-7c-0.391-0.391-1.024-0.391-1.414 0s-0.391 1.024 0 1.414z"></path>
</symbol>
<symbol id="icon-clock" viewBox="0 0 32 32">
<path d="M20.586 23.414l-6.586-6.586v-8.828h4v7.172l5.414 5.414zM16 0c-8.837 0-16 7.163-16 16s7.163 16 16 16 16-7.163 16-16-7.163-16-16-16zM16 28c-6.627 0-12-5.373-12-12s5.373-12 12-12c6.627 0 12 5.373 12 12s-5.373 12-12 12z"></path>
</symbol>
<symbol id="icon-heart" viewBox="0 0 32 32">
<path d="M23.6 2c-3.363 0-6.258 2.736-7.599 5.594-1.342-2.858-4.237-5.594-7.601-5.594-4.637 0-8.4 3.764-8.4 8.401 0 9.433 9.516 11.906 16.001 21.232 6.13-9.268 15.999-12.1 15.999-21.232 0-4.637-3.763-8.401-8.4-8.401z"></path>
</symbol>
<symbol id="icon-github" viewBox="0 0 32 32">
<path d="M16 0.395c-8.836 0-16 7.163-16 16 0 7.069 4.585 13.067 10.942 15.182 0.8 0.148 1.094-0.347 1.094-0.77 0-0.381-0.015-1.642-0.022-2.979-4.452 0.968-5.391-1.888-5.391-1.888-0.728-1.849-1.776-2.341-1.776-2.341-1.452-0.993 0.11-0.973 0.11-0.973 1.606 0.113 2.452 1.649 2.452 1.649 1.427 2.446 3.743 1.739 4.656 1.33 0.143-1.034 0.558-1.74 1.016-2.14-3.554-0.404-7.29-1.777-7.29-7.907 0-1.747 0.625-3.174 1.649-4.295-0.166-0.403-0.714-2.030 0.155-4.234 0 0 1.344-0.43 4.401 1.64 1.276-0.355 2.645-0.532 4.005-0.539 1.359 0.006 2.729 0.184 4.008 0.539 3.054-2.070 4.395-1.64 4.395-1.64 0.871 2.204 0.323 3.831 0.157 4.234 1.026 1.12 1.647 2.548 1.647 4.295 0 6.145-3.743 7.498-7.306 7.895 0.574 0.497 1.085 1.47 1.085 2.963 0 2.141-0.019 3.864-0.019 4.391 0 0.426 0.288 0.925 1.099 0.768 6.354-2.118 10.933-8.113 10.933-15.18 0-8.837-7.164-16-16-16z"></path>
</symbol>
<symbol id="icon-sun" viewBox="0 0 32 32">
<path d="M16 26c1.105 0 2 0.895 2 2v2c0 1.105-0.895 2-2 2s-2-0.895-2-2v-2c0-1.105 0.895-2 2-2zM16 6c-1.105 0-2-0.895-2-2v-2c0-1.105 0.895-2 2-2s2 0.895 2 2v2c0 1.105-0.895 2-2 2zM30 14c1.105 0 2 0.895 2 2s-0.895 2-2 2h-2c-1.105 0-2-0.895-2-2s0.895-2 2-2h2zM6 16c0 1.105-0.895 2-2 2h-2c-1.105 0-2-0.895-2-2s0.895-2 2-2h2c1.105 0 2 0.895 2 2zM25.899 23.071l1.414 1.414c0.781 0.781 0.781 2.047 0 2.828s-2.047 0.781-2.828 0l-1.414-1.414c-0.781-0.781-0.781-2.047 0-2.828s2.047-0.781 2.828 0zM6.101 8.929l-1.414-1.414c-0.781-0.781-0.781-2.047 0-2.828s2.047-0.781 2.828 0l1.414 1.414c0.781 0.781 0.781 2.047 0 2.828s-2.047 0.781-2.828 0zM25.899 8.929c-0.781 0.781-2.047 0.781-2.828 0s-0.781-2.047 0-2.828l1.414-1.414c0.781-0.781 2.047-0.781 2.828 0s0.781 2.047 0 2.828l-1.414 1.414zM6.101 23.071c0.781-0.781 2.047-0.781 2.828 0s0.781 2.047 0 2.828l-1.414 1.414c-0.781 0.781-2.047 0.781-2.828 0s-0.781-2.047 0-2.828l1.414-1.414z"></path>
<path d="M16 8c-4.418 0-8 3.582-8 8s3.582 8 8 8c4.418 0 8-3.582 8-8s-3.582-8-8-8zM16 21c-2.761 0-5-2.239-5-5s2.239-5 5-5 5 2.239 5 5-2.239 5-5 5z"></path>
</symbol>
<symbol id="icon-eye" viewBox="0 0 20 20">
<path d="M0.2 10c1.86-3.592 5.548-6.004 9.8-6.004s7.94 2.412 9.771 5.943l0.029 0.061c-1.86 3.592-5.548 6.004-9.8 6.004s-7.94-2.412-9.771-5.943l-0.029-0.061zM10 14c2.209 0 4-1.791 4-4s-1.791-4-4-4v0c-2.209 0-4 1.791-4 4s1.791 4 4 4v0zM10 12c-1.105 0-2-0.895-2-2s0.895-2 2-2v0c1.105 0 2 0.895 2 2s-0.895 2-2 2v0z"></path>
</symbol>
<symbol id="icon-search" viewBox="0 0 20 20">
<path d="M12.9 14.32c-1.34 1.049-3.050 1.682-4.908 1.682-4.418 0-8-3.582-8-8s3.582-8 8-8c4.418 0 8 3.582 8 8 0 1.858-0.633 3.567-1.695 4.925l0.013-0.018 5.35 5.33-1.42 1.42-5.33-5.34zM8 14c3.314 0 6-2.686 6-6s-2.686-6-6-6v0c-3.314 0-6 2.686-6 6s2.686 6 6 6v0z"></path>
</symbol>
<symbol id="icon-moon" viewBox="0 0 18 18">
<path d="M7.246 3.255c-0.251 0.828-0.322 1.71-0.198 2.597 0.366 2.63 2.455 4.723 5.080 5.089 0.282 0.040 0.568 0.060 0.85 0.060 0.599 0 1.184-0.087 1.742-0.257-0.674 2.215-2.642 3.926-4.973 4.21-0.254 0.031-0.51 0.047-0.762 0.047-1.713 0-3.349-0.738-4.486-2.024-1.152-1.304-1.669-2.987-1.457-4.739 0.284-2.335 1.992-4.307 4.204-4.982zM8.985 1c-0.362 0-0.731 0.024-1.104 0.075-3.543 0.48-6.388 3.364-6.82 6.92-0.592 4.867 3.184 9.005 7.924 9.005 0.33 0 0.665-0.020 1.003-0.062 3.549-0.433 6.428-3.283 6.907-6.833 0.052-0.383 0.076-0.761 0.075-1.134-0.002-0.583-0.482-0.972-0.996-0.972-0.209 0-0.424 0.065-0.614 0.207-0.665 0.498-1.489 0.793-2.383 0.793-0.188 0-0.38-0.013-0.574-0.040-1.732-0.242-3.137-1.649-3.378-3.385-0.155-1.115 0.149-2.156 0.751-2.963 0.415-0.657 0.025-1.609-0.764-1.612-0.009 0-0.018 0-0.028 0v0z"></path>
</symbol>
<symbol id="icon-logo" viewBox="0 0 32 32">
<path fill="#fefefe" style="fill: var(--color1, #fefefe)" d="M15.697 0.615c0.068 0 0.136 0 0.207 0.001 1.060 0.004 2.079 0.064 3.113 0.314 0.070 0.016 0.139 0.032 0.211 0.048 2.796 0.642 5.137 2.094 7.195 4.126 0.070 0.067 0.141 0.134 0.213 0.202 2.736 2.685 4.343 6.99 4.457 10.845 0.030 3.61-1.172 7.136-3.39 9.915-0.049 0.063-0.098 0.125-0.149 0.19-0.147 0.187-0.296 0.372-0.445 0.557-0.045 0.056-0.090 0.112-0.136 0.169-0.222 0.267-0.41 0.477-0.732 0.601 0 0.063 0 0.125 0 0.19-1.854 1.822-4.176 3.030-6.617 3.735-0.117 0.034-0.117 0.034-0.237 0.069-1.136 0.311-2.266 0.407-3.438 0.4-0.064-0-0.127-0-0.193-0.001-3.373-0.017-6.594-1.084-9.264-3.254-0.078-0.062-0.156-0.124-0.237-0.187-2.901-2.364-4.859-5.718-5.523-9.488-0.019-0.096-0.037-0.192-0.056-0.291-0.298-1.825-0.29-3.885 0.148-5.685 0.021-0.087 0.042-0.174 0.064-0.264 0.748-3.003 2.088-5.462 4.142-7.703 0.057-0.065 0.113-0.13 0.171-0.196 2.629-2.91 6.735-4.311 10.497-4.291z"></path>
<path fill="#080909" style="fill: var(--color2, #080909)" d="M12.446 12.397c0.249 0.199 0.486 0.406 0.72 0.623 0.071 0.064 0.142 0.128 0.215 0.194 1.851 1.748 2.93 4.441 3.017 6.969 0.019 1.607-0.419 3.189-1.491 4.411-0.789 0.762-1.836 1.271-2.929 1.355-0.098 0.007-0.195 0.015-0.295 0.023-1.861 0.070-3.565-0.693-4.916-1.948-0.071-0.064-0.142-0.128-0.215-0.194-1.865-1.761-2.837-4.415-2.93-6.945-0.024-1.662 0.485-3.176 1.648-4.394 2.093-1.954 4.954-1.663 7.178-0.093z"></path>
<path fill="#070808" style="fill: var(--color3, #070808)" d="M22.308 4.218c0.502 0.349 0.956 0.743 1.371 1.192 0.061 0.059 0.122 0.119 0.184 0.18 0.957 0.981 1.593 2.281 1.586 3.66-0.018 0.717-0.198 1.284-0.679 1.827-0.964 0.885-2.176 0.914-3.406 0.862-1.697-0.138-3.326-1.222-4.469-2.421-1.009-1.191-1.473-2.47-1.373-4.022 0.078-0.736 0.469-1.355 1.025-1.829 1.821-1.131 4.045-0.491 5.76 0.55z"></path>
<path fill="#080909" style="fill: var(--color2, #080909)" d="M23.435 20.952c0.562 0.447 0.827 1.001 0.977 1.696 0.074 0.829-0.166 1.607-0.663 2.275-0.752 0.884-1.626 1.503-2.81 1.598-0.91 0.021-1.65-0.141-2.33-0.776-0.524-0.607-0.721-1.255-0.708-2.046 0.090-1.055 0.647-1.865 1.436-2.537 1.213-0.87 2.819-1.045 4.098-0.209z"></path>
<path fill="#080808" style="fill: var(--color4, #080808)" d="M27.038 12.848c0.515 0.428 0.896 1.065 0.969 1.736 0.009 0.732-0.035 1.261-0.547 1.806-0.543 0.496-1.028 0.623-1.757 0.607-0.644-0.077-1.124-0.376-1.561-0.848-0.572-0.731-0.665-1.379-0.554-2.304 0.201-0.591 0.664-0.975 1.189-1.284 0.804-0.344 1.548-0.181 2.261 0.286z"></path>
<path fill="#171818" style="fill: var(--color5, #171818)" d="M26.88 12.837c0.369 0.19 0.542 0.364 0.731 0.733-0.307-0.132-0.511-0.298-0.731-0.55 0-0.060 0-0.121 0-0.183z"></path>
</symbol>
<symbol id="icon-google" viewBox="0 0 24 24">
  <path fill="#4285F4" d="M23.745 12.27c0-.79-.07-1.54-.19-2.27h-11.3v4.51h6.47c-.29 1.48-1.14 2.73-2.4 3.58v3h3.86c2.26-2.08 3.56-5.17 3.56-8.82z"/>
  <path fill="#34A853" d="M12.255 24c3.24 0 5.95-1.08 7.93-2.91l-3.86-3c-1.08.72-2.45 1.16-4.07 1.16-3.13 0-5.78-2.11-6.73-4.96h-3.98v3.09C3.515 21.3 7.615 24 12.255 24z"/>
  <path fill="#FBBC05" d="M5.525 14.29c-.25-.72-.38-1.49-.38-2.29s.14-1.57.38-2.29V6.62h-3.98a11.86 11.86 0 000 10.76l3.98-3.09z"/>
  <path fill="#EA4335" d="M12.255 4.75c1.77 0 3.35.61 4.6 1.8l3.42-3.42C18.205 1.19 15.495 0 12.255 0c-4.64 0-8.74 2.7-10.71 6.62l3.98 3.09c.95-2.85 3.6-4.96 6.73-4.96z"/>
</symbol>
</defs>
</svg>
